<svg width="142" height="55" viewBox="0 0 142 55" fill="none" xmlns="http://www.w3.org/2000/svg">
<path d="M30.3778 45.8892C30.3494 45.5767 30.223 45.3338 29.9986 45.1605C29.777 44.9844 29.4602 44.8963 29.0483 44.8963C28.7756 44.8963 28.5483 44.9318 28.3665 45.0028C28.1847 45.0739 28.0483 45.1719 27.9574 45.2969C27.8665 45.419 27.8196 45.5597 27.8168 45.7188C27.8111 45.8494 27.8366 45.9645 27.8935 46.0639C27.9531 46.1634 28.0384 46.2514 28.1491 46.3281C28.2628 46.402 28.3991 46.4673 28.5582 46.5241C28.7173 46.581 28.8963 46.6307 29.0952 46.6733L29.8452 46.8438C30.277 46.9375 30.6577 47.0625 30.9872 47.2188C31.3196 47.375 31.598 47.5611 31.8224 47.777C32.0497 47.9929 32.2216 48.2415 32.3381 48.5227C32.4545 48.804 32.5142 49.1193 32.517 49.4688C32.5142 50.0199 32.375 50.4929 32.0994 50.8878C31.8239 51.2827 31.4276 51.5852 30.9105 51.7955C30.3963 52.0057 29.7756 52.1108 29.0483 52.1108C28.3182 52.1108 27.6818 52.0014 27.1392 51.7827C26.5966 51.5639 26.1747 51.2315 25.8736 50.7855C25.5724 50.3395 25.4176 49.7756 25.4091 49.0938H27.429C27.446 49.375 27.5213 49.6094 27.6548 49.7969C27.7884 49.9844 27.9716 50.1264 28.2045 50.223C28.4403 50.3196 28.7131 50.3679 29.0227 50.3679C29.3068 50.3679 29.5483 50.3295 29.7472 50.2528C29.9489 50.1761 30.1037 50.0696 30.2116 49.9332C30.3196 49.7969 30.375 49.6406 30.3778 49.4645C30.375 49.2997 30.3239 49.1591 30.2244 49.0426C30.125 48.9233 29.9716 48.821 29.7642 48.7358C29.5597 48.6477 29.2983 48.5668 28.9801 48.4929L28.0682 48.2798C27.3125 48.1065 26.7173 47.8267 26.2827 47.4403C25.848 47.0511 25.6321 46.5256 25.6349 45.8636C25.6321 45.3239 25.777 44.8509 26.0696 44.4446C26.3622 44.0384 26.767 43.7216 27.2841 43.4943C27.8011 43.267 28.3906 43.1534 29.0526 43.1534C29.7287 43.1534 30.3153 43.2685 30.8125 43.4986C31.3125 43.7259 31.7003 44.0455 31.9759 44.4574C32.2514 44.8693 32.392 45.3466 32.3977 45.8892H30.3778ZM37.8054 49.1747V45.4545H39.8849V52H37.8991V50.7812H37.831C37.6861 51.1818 37.4389 51.5 37.0895 51.7358C36.7429 51.9687 36.3239 52.0852 35.8324 52.0852C35.3864 52.0852 34.9943 51.983 34.6562 51.7784C34.3182 51.5739 34.0554 51.2884 33.8679 50.9219C33.6804 50.5526 33.5852 50.1207 33.5824 49.6264V45.4545H35.6662V49.2173C35.669 49.5724 35.7628 49.8523 35.9474 50.0568C36.1321 50.2614 36.3835 50.3636 36.7017 50.3636C36.9091 50.3636 37.0952 50.3182 37.2599 50.2273C37.4276 50.1335 37.5597 49.9986 37.6562 49.8224C37.7557 49.6435 37.8054 49.4276 37.8054 49.1747ZM43.0565 52.1108C42.6388 52.1108 42.2681 52.0412 41.9442 51.902C41.6232 51.7599 41.369 51.5469 41.1815 51.2628C40.9968 50.9759 40.9045 50.6165 40.9045 50.1847C40.9045 49.821 40.9684 49.5142 41.0962 49.2642C41.2241 49.0142 41.4002 48.8111 41.6246 48.6548C41.8491 48.4986 42.1076 48.3807 42.4002 48.3011C42.6928 48.2187 43.0053 48.1634 43.3377 48.1349C43.7099 48.1009 44.0096 48.0653 44.2369 48.0284C44.4641 47.9886 44.6289 47.9332 44.7312 47.8622C44.8363 47.7884 44.8888 47.6847 44.8888 47.5511V47.5298C44.8888 47.3111 44.8136 47.142 44.663 47.0227C44.5124 46.9034 44.3093 46.8438 44.0536 46.8438C43.7781 46.8438 43.5565 46.9034 43.3888 47.0227C43.2212 47.142 43.1147 47.3068 43.0692 47.517L41.1474 47.4489C41.2042 47.0511 41.3505 46.696 41.5863 46.3835C41.8249 46.0682 42.1516 45.821 42.5664 45.642C42.984 45.4602 43.4854 45.3693 44.0707 45.3693C44.4883 45.3693 44.8732 45.419 45.2255 45.5185C45.5778 45.6151 45.8846 45.7571 46.146 45.9446C46.4073 46.1293 46.609 46.3565 46.7511 46.6264C46.896 46.8963 46.9684 47.2045 46.9684 47.5511V52H45.0082V51.0881H44.957C44.8406 51.3097 44.6914 51.4972 44.5096 51.6506C44.3306 51.804 44.119 51.919 43.8746 51.9957C43.6332 52.0724 43.3604 52.1108 43.0565 52.1108ZM43.6999 50.7472C43.9244 50.7472 44.1261 50.7017 44.305 50.6108C44.4869 50.5199 44.6317 50.3949 44.7397 50.2358C44.8477 50.0739 44.9016 49.8864 44.9016 49.6733V49.0511C44.842 49.0824 44.7695 49.1108 44.6843 49.1364C44.6019 49.1619 44.511 49.1861 44.4116 49.2088C44.3121 49.2315 44.2099 49.2514 44.1048 49.2685C43.9996 49.2855 43.8988 49.3011 43.8022 49.3153C43.6062 49.3466 43.4386 49.3949 43.2994 49.4602C43.163 49.5256 43.0579 49.6108 42.984 49.7159C42.913 49.8182 42.8775 49.9403 42.8775 50.0824C42.8775 50.2983 42.9542 50.4631 43.1076 50.5767C43.2638 50.6903 43.4613 50.7472 43.6999 50.7472ZM52.9045 43.2727V52H50.8207V43.2727H52.9045ZM54.2308 52V45.4545H56.3146V52H54.2308ZM55.2749 44.6918C54.9822 44.6918 54.7308 44.5952 54.5206 44.402C54.3104 44.206 54.2053 43.9702 54.2053 43.6946C54.2053 43.4219 54.3104 43.1889 54.5206 42.9957C54.7308 42.7997 54.9822 42.7017 55.2749 42.7017C55.5703 42.7017 55.8217 42.7997 56.0291 42.9957C56.2393 43.1889 56.3445 43.4219 56.3445 43.6946C56.3445 43.9702 56.2393 44.206 56.0291 44.402C55.8217 44.5952 55.5703 44.6918 55.2749 44.6918ZM63.3555 47.4531L61.4421 47.5043C61.4222 47.3679 61.3683 47.2472 61.2802 47.142C61.1921 47.0341 61.0771 46.9503 60.935 46.8906C60.7958 46.8281 60.6339 46.7969 60.4492 46.7969C60.2077 46.7969 60.0018 46.8452 59.8313 46.9418C59.6637 47.0384 59.5813 47.169 59.5842 47.3338C59.5813 47.4616 59.6325 47.5724 59.7376 47.6662C59.8455 47.7599 60.0373 47.8352 60.3129 47.892L61.5742 48.1307C62.2276 48.2557 62.7134 48.4631 63.0316 48.7528C63.3526 49.0426 63.5146 49.4261 63.5174 49.9034C63.5146 50.3523 63.381 50.7429 63.1168 51.0753C62.8555 51.4077 62.4975 51.6662 62.043 51.8509C61.5884 52.0327 61.0685 52.1236 60.4833 52.1236C59.5487 52.1236 58.8114 51.9318 58.2717 51.5483C57.7347 51.1619 57.4279 50.6449 57.3512 49.9972L59.4094 49.946C59.4549 50.1847 59.5728 50.3665 59.7631 50.4915C59.9535 50.6165 60.1964 50.679 60.4918 50.679C60.7589 50.679 60.9762 50.6293 61.1438 50.5298C61.3114 50.4304 61.3967 50.2983 61.3995 50.1335C61.3967 49.9858 61.3313 49.8679 61.2035 49.7798C61.0756 49.6889 60.8754 49.6179 60.6026 49.5668L59.4606 49.3494C58.8043 49.2301 58.3157 49.0099 57.9947 48.6889C57.6737 48.3651 57.5146 47.9531 57.5174 47.4531C57.5146 47.0156 57.631 46.642 57.8668 46.3324C58.1026 46.0199 58.4379 45.7812 58.8725 45.6165C59.3072 45.4517 59.82 45.3693 60.4109 45.3693C61.2972 45.3693 61.9961 45.5554 62.5075 45.9276C63.0188 46.2969 63.3015 46.8054 63.3555 47.4531ZM68.2379 45.4545V46.9886H64.1087V45.4545H68.2379ZM64.9737 43.8864H67.0575V49.9418C67.0575 50.0696 67.0774 50.1733 67.1172 50.2528C67.1598 50.3295 67.2209 50.3849 67.3004 50.419C67.38 50.4503 67.4751 50.4659 67.5859 50.4659C67.6655 50.4659 67.7493 50.4588 67.8374 50.4446C67.9283 50.4276 67.9964 50.4134 68.0419 50.402L68.3572 51.9062C68.2578 51.9347 68.1172 51.9702 67.9354 52.0128C67.7564 52.0554 67.5419 52.0824 67.2919 52.0938C66.8033 52.1165 66.3842 52.0597 66.0348 51.9233C65.6882 51.7841 65.4226 51.5682 65.2379 51.2756C65.0561 50.983 64.968 50.6151 64.9737 50.1719V43.8864ZM71.1463 52.1108C70.7287 52.1108 70.358 52.0412 70.0341 51.902C69.7131 51.7599 69.4588 51.5469 69.2713 51.2628C69.0866 50.9759 68.9943 50.6165 68.9943 50.1847C68.9943 49.821 69.0582 49.5142 69.1861 49.2642C69.3139 49.0142 69.4901 48.8111 69.7145 48.6548C69.9389 48.4986 70.1974 48.3807 70.4901 48.3011C70.7827 48.2187 71.0952 48.1634 71.4276 48.1349C71.7997 48.1009 72.0994 48.0653 72.3267 48.0284C72.554 47.9886 72.7188 47.9332 72.821 47.8622C72.9261 47.7884 72.9787 47.6847 72.9787 47.5511V47.5298C72.9787 47.3111 72.9034 47.142 72.7528 47.0227C72.6023 46.9034 72.3991 46.8438 72.1435 46.8438C71.8679 46.8438 71.6463 46.9034 71.4787 47.0227C71.3111 47.142 71.2045 47.3068 71.1591 47.517L69.2372 47.4489C69.294 47.0511 69.4403 46.696 69.6761 46.3835C69.9148 46.0682 70.2415 45.821 70.6562 45.642C71.0739 45.4602 71.5753 45.3693 72.1605 45.3693C72.5781 45.3693 72.9631 45.419 73.3153 45.5185C73.6676 45.6151 73.9744 45.7571 74.2358 45.9446C74.4972 46.1293 74.6989 46.3565 74.8409 46.6264C74.9858 46.8963 75.0582 47.2045 75.0582 47.5511V52H73.098V51.0881H73.0469C72.9304 51.3097 72.7813 51.4972 72.5994 51.6506C72.4205 51.804 72.2088 51.919 71.9645 51.9957C71.723 52.0724 71.4503 52.1108 71.1463 52.1108ZM71.7898 50.7472C72.0142 50.7472 72.2159 50.7017 72.3949 50.6108C72.5767 50.5199 72.7216 50.3949 72.8295 50.2358C72.9375 50.0739 72.9915 49.8864 72.9915 49.6733V49.0511C72.9318 49.0824 72.8594 49.1108 72.7741 49.1364C72.6918 49.1619 72.6009 49.1861 72.5014 49.2088C72.402 49.2315 72.2997 49.2514 72.1946 49.2685C72.0895 49.2855 71.9886 49.3011 71.892 49.3153C71.696 49.3466 71.5284 49.3949 71.3892 49.4602C71.2528 49.5256 71.1477 49.6108 71.0739 49.7159C71.0028 49.8182 70.9673 49.9403 70.9673 50.0824C70.9673 50.2983 71.044 50.4631 71.1974 50.5767C71.3537 50.6903 71.5511 50.7472 71.7898 50.7472ZM81.3011 52.0938C80.8182 52.0938 80.3793 51.9688 79.9844 51.7188C79.5895 51.4688 79.2741 51.0938 79.0384 50.5938C78.8026 50.0938 78.6847 49.473 78.6847 48.7315C78.6847 47.9616 78.8068 47.3281 79.0511 46.831C79.2955 46.3338 79.6151 45.9659 80.0099 45.7273C80.4077 45.4886 80.8352 45.3693 81.2926 45.3693C81.6364 45.3693 81.9304 45.429 82.1747 45.5483C82.419 45.6648 82.6207 45.8153 82.7798 46C82.9389 46.1847 83.0597 46.3764 83.142 46.5753H83.1847V43.2727H85.2685V52H83.206V50.9389H83.142C83.054 51.1406 82.929 51.3295 82.767 51.5057C82.6051 51.6818 82.402 51.8239 82.1577 51.9318C81.9162 52.0398 81.6307 52.0938 81.3011 52.0938ZM82.0256 50.4702C82.2784 50.4702 82.4943 50.3991 82.6733 50.2571C82.8523 50.1122 82.9901 49.9091 83.0866 49.6477C83.1832 49.3864 83.2315 49.0795 83.2315 48.7273C83.2315 48.3693 83.1832 48.0611 83.0866 47.8026C82.9929 47.544 82.8551 47.3452 82.6733 47.206C82.4943 47.0668 82.2784 46.9972 82.0256 46.9972C81.767 46.9972 81.5483 47.0682 81.3693 47.2102C81.1903 47.3523 81.054 47.5526 80.9602 47.8111C80.8693 48.0696 80.8239 48.375 80.8239 48.7273C80.8239 49.0795 80.8707 49.3864 80.9645 49.6477C81.0582 49.9091 81.1932 50.1122 81.3693 50.2571C81.5483 50.3991 81.767 50.4702 82.0256 50.4702ZM89.646 52.1236C88.9613 52.1236 88.3704 51.9886 87.8732 51.7188C87.3789 51.446 86.9982 51.0582 86.7312 50.5554C86.467 50.0497 86.3349 49.4489 86.3349 48.7528C86.3349 48.0767 86.4684 47.4858 86.7354 46.9801C87.0025 46.4716 87.3789 46.0767 87.8647 45.7955C88.3505 45.5114 88.9229 45.3693 89.582 45.3693C90.0479 45.3693 90.4741 45.4418 90.8604 45.5866C91.2468 45.7315 91.5806 45.946 91.8619 46.2301C92.1431 46.5142 92.3619 46.8651 92.5181 47.2827C92.6744 47.6974 92.7525 48.1733 92.7525 48.7102V49.2301H87.0636V48.0199H90.8136C90.8107 47.7983 90.7582 47.6009 90.6559 47.4276C90.5536 47.2543 90.413 47.1193 90.234 47.0227C90.0579 46.9233 89.8548 46.8736 89.6246 46.8736C89.3917 46.8736 89.1829 46.9261 88.9982 47.0312C88.8136 47.1335 88.6673 47.2741 88.5593 47.4531C88.4513 47.6293 88.3945 47.8295 88.3888 48.054V49.2855C88.3888 49.5526 88.4414 49.7869 88.5465 49.9886C88.6516 50.1875 88.8008 50.3423 88.994 50.4531C89.1871 50.5639 89.4173 50.6193 89.6843 50.6193C89.869 50.6193 90.0366 50.5937 90.1871 50.5426C90.3377 50.4915 90.467 50.4162 90.5749 50.3168C90.6829 50.2173 90.7638 50.0952 90.8178 49.9503L92.7312 50.0057C92.6516 50.4347 92.4769 50.8082 92.207 51.1264C91.94 51.4418 91.5891 51.6875 91.1545 51.8636C90.7198 52.0369 90.217 52.1236 89.646 52.1236ZM100.089 45.4545V46.9886H95.9602V45.4545H100.089ZM96.8253 43.8864H98.9091V49.9418C98.9091 50.0696 98.929 50.1733 98.9688 50.2528C99.0114 50.3295 99.0724 50.3849 99.152 50.419C99.2315 50.4503 99.3267 50.4659 99.4375 50.4659C99.517 50.4659 99.6009 50.4588 99.6889 50.4446C99.7798 50.4276 99.848 50.4134 99.8935 50.402L100.209 51.9062C100.109 51.9347 99.9688 51.9702 99.7869 52.0128C99.608 52.0554 99.3935 52.0824 99.1435 52.0938C98.6548 52.1165 98.2358 52.0597 97.8864 51.9233C97.5398 51.7841 97.2741 51.5682 97.0895 51.2756C96.9077 50.983 96.8196 50.6151 96.8253 50.1719V43.8864ZM102.998 52.1108C102.58 52.1108 102.21 52.0412 101.886 51.902C101.565 51.7599 101.31 51.5469 101.123 51.2628C100.938 50.9759 100.846 50.6165 100.846 50.1847C100.846 49.821 100.91 49.5142 101.038 49.2642C101.165 49.0142 101.342 48.8111 101.566 48.6548C101.79 48.4986 102.049 48.3807 102.342 48.3011C102.634 48.2187 102.947 48.1634 103.279 48.1349C103.651 48.1009 103.951 48.0653 104.178 48.0284C104.406 47.9886 104.57 47.9332 104.673 47.8622C104.778 47.7884 104.83 47.6847 104.83 47.5511V47.5298C104.83 47.3111 104.755 47.142 104.604 47.0227C104.454 46.9034 104.251 46.8438 103.995 46.8438C103.719 46.8438 103.498 46.9034 103.33 47.0227C103.163 47.142 103.056 47.3068 103.011 47.517L101.089 47.4489C101.146 47.0511 101.292 46.696 101.528 46.3835C101.766 46.0682 102.093 45.821 102.508 45.642C102.925 45.4602 103.427 45.3693 104.012 45.3693C104.43 45.3693 104.815 45.419 105.167 45.5185C105.519 45.6151 105.826 45.7571 106.087 45.9446C106.349 46.1293 106.55 46.3565 106.692 46.6264C106.837 46.8963 106.91 47.2045 106.91 47.5511V52H104.95V51.0881H104.898C104.782 51.3097 104.633 51.4972 104.451 51.6506C104.272 51.804 104.06 51.919 103.816 51.9957C103.575 52.0724 103.302 52.1108 102.998 52.1108ZM103.641 50.7472C103.866 50.7472 104.067 50.7017 104.246 50.6108C104.428 50.5199 104.573 50.3949 104.681 50.2358C104.789 50.0739 104.843 49.8864 104.843 49.6733V49.0511C104.783 49.0824 104.711 49.1108 104.626 49.1364C104.543 49.1619 104.452 49.1861 104.353 49.2088C104.254 49.2315 104.151 49.2514 104.046 49.2685C103.941 49.2855 103.84 49.3011 103.744 49.3153C103.548 49.3466 103.38 49.3949 103.241 49.4602C103.104 49.5256 102.999 49.6108 102.925 49.7159C102.854 49.8182 102.819 49.9403 102.819 50.0824C102.819 50.2983 102.896 50.4631 103.049 50.5767C103.205 50.6903 103.403 50.7472 103.641 50.7472ZM108.184 52V45.4545H110.208V46.6477H110.276C110.396 46.2159 110.59 45.8949 110.86 45.6847C111.13 45.4716 111.444 45.3651 111.802 45.3651C111.898 45.3651 111.998 45.3722 112.1 45.3864C112.202 45.3977 112.298 45.4162 112.386 45.4418V47.2528C112.286 47.2187 112.156 47.1918 111.994 47.1719C111.835 47.152 111.692 47.142 111.567 47.142C111.32 47.142 111.097 47.1974 110.898 47.3082C110.702 47.4162 110.548 47.5682 110.434 47.7642C110.323 47.9574 110.268 48.1847 110.268 48.446V52H108.184ZM115.955 52.1236C115.27 52.1236 114.679 51.9886 114.182 51.7188C113.688 51.446 113.307 51.0582 113.04 50.5554C112.776 50.0497 112.643 49.4489 112.643 48.7528C112.643 48.0767 112.777 47.4858 113.044 46.9801C113.311 46.4716 113.688 46.0767 114.173 45.7955C114.659 45.5114 115.232 45.3693 115.891 45.3693C116.357 45.3693 116.783 45.4418 117.169 45.5866C117.555 45.7315 117.889 45.946 118.17 46.2301C118.452 46.5142 118.67 46.8651 118.827 47.2827C118.983 47.6974 119.061 48.1733 119.061 48.7102V49.2301H113.372V48.0199H117.122C117.119 47.7983 117.067 47.6009 116.964 47.4276C116.862 47.2543 116.722 47.1193 116.543 47.0227C116.366 46.9233 116.163 46.8736 115.933 46.8736C115.7 46.8736 115.491 46.9261 115.307 47.0312C115.122 47.1335 114.976 47.2741 114.868 47.4531C114.76 47.6293 114.703 47.8295 114.697 48.054V49.2855C114.697 49.5526 114.75 49.7869 114.855 49.9886C114.96 50.1875 115.109 50.3423 115.303 50.4531C115.496 50.5639 115.726 50.6193 115.993 50.6193C116.178 50.6193 116.345 50.5937 116.496 50.5426C116.646 50.4915 116.776 50.4162 116.884 50.3168C116.991 50.2173 117.072 50.0952 117.126 49.9503L119.04 50.0057C118.96 50.4347 118.786 50.8082 118.516 51.1264C118.249 51.4418 117.898 51.6875 117.463 51.8636C117.028 52.0369 116.526 52.1236 115.955 52.1236ZM123.846 45.4545V46.9886H119.635V45.4545H123.846ZM120.513 52V45.1222C120.513 44.6165 120.608 44.1974 120.799 43.8651C120.989 43.5298 121.253 43.2798 121.591 43.1151C121.929 42.9474 122.32 42.8636 122.763 42.8636C123.053 42.8636 123.326 42.8864 123.581 42.9318C123.84 42.9744 124.032 43.0128 124.157 43.0469L123.824 44.5724C123.748 44.5469 123.654 44.5256 123.543 44.5085C123.435 44.4915 123.333 44.483 123.236 44.483C122.992 44.483 122.824 44.5369 122.733 44.6449C122.642 44.7528 122.597 44.9006 122.597 45.0881V52H120.513ZM126.435 52.1108C126.018 52.1108 125.647 52.0412 125.323 51.902C125.002 51.7599 124.748 51.5469 124.56 51.2628C124.376 50.9759 124.283 50.6165 124.283 50.1847C124.283 49.821 124.347 49.5142 124.475 49.2642C124.603 49.0142 124.779 48.8111 125.004 48.6548C125.228 48.4986 125.487 48.3807 125.779 48.3011C126.072 48.2187 126.384 48.1634 126.717 48.1349C127.089 48.1009 127.388 48.0653 127.616 48.0284C127.843 47.9886 128.008 47.9332 128.11 47.8622C128.215 47.7884 128.268 47.6847 128.268 47.5511V47.5298C128.268 47.3111 128.192 47.142 128.042 47.0227C127.891 46.9034 127.688 46.8438 127.433 46.8438C127.157 46.8438 126.935 46.9034 126.768 47.0227C126.6 47.142 126.494 47.3068 126.448 47.517L124.526 47.4489C124.583 47.0511 124.729 46.696 124.965 46.3835C125.204 46.0682 125.531 45.821 125.945 45.642C126.363 45.4602 126.864 45.3693 127.45 45.3693C127.867 45.3693 128.252 45.419 128.604 45.5185C128.957 45.6151 129.263 45.7571 129.525 45.9446C129.786 46.1293 129.988 46.3565 130.13 46.6264C130.275 46.8963 130.347 47.2045 130.347 47.5511V52H128.387V51.0881H128.336C128.219 51.3097 128.07 51.4972 127.888 51.6506C127.71 51.804 127.498 51.919 127.254 51.9957C127.012 52.0724 126.739 52.1108 126.435 52.1108ZM127.079 50.7472C127.303 50.7472 127.505 50.7017 127.684 50.6108C127.866 50.5199 128.011 50.3949 128.119 50.2358C128.227 50.0739 128.281 49.8864 128.281 49.6733V49.0511C128.221 49.0824 128.148 49.1108 128.063 49.1364C127.981 49.1619 127.89 49.1861 127.79 49.2088C127.691 49.2315 127.589 49.2514 127.484 49.2685C127.379 49.2855 127.278 49.3011 127.181 49.3153C126.985 49.3466 126.817 49.3949 126.678 49.4602C126.542 49.5256 126.437 49.6108 126.363 49.7159C126.292 49.8182 126.256 49.9403 126.256 50.0824C126.256 50.2983 126.333 50.4631 126.487 50.5767C126.643 50.6903 126.84 50.7472 127.079 50.7472ZM137.336 47.4531L135.423 47.5043C135.403 47.3679 135.349 47.2472 135.261 47.142C135.173 47.0341 135.058 46.9503 134.915 46.8906C134.776 46.8281 134.614 46.7969 134.43 46.7969C134.188 46.7969 133.982 46.8452 133.812 46.9418C133.644 47.0384 133.562 47.169 133.565 47.3338C133.562 47.4616 133.613 47.5724 133.718 47.6662C133.826 47.7599 134.018 47.8352 134.293 47.892L135.555 48.1307C136.208 48.2557 136.694 48.4631 137.012 48.7528C137.333 49.0426 137.495 49.4261 137.498 49.9034C137.495 50.3523 137.362 50.7429 137.097 51.0753C136.836 51.4077 136.478 51.6662 136.023 51.8509C135.569 52.0327 135.049 52.1236 134.464 52.1236C133.529 52.1236 132.792 51.9318 132.252 51.5483C131.715 51.1619 131.408 50.6449 131.332 49.9972L133.39 49.946C133.435 50.1847 133.553 50.3665 133.744 50.4915C133.934 50.6165 134.177 50.679 134.472 50.679C134.739 50.679 134.957 50.6293 135.124 50.5298C135.292 50.4304 135.377 50.2983 135.38 50.1335C135.377 49.9858 135.312 49.8679 135.184 49.7798C135.056 49.6889 134.856 49.6179 134.583 49.5668L133.441 49.3494C132.785 49.2301 132.296 49.0099 131.975 48.6889C131.654 48.3651 131.495 47.9531 131.498 47.4531C131.495 47.0156 131.612 46.642 131.847 46.3324C132.083 46.0199 132.418 45.7812 132.853 45.6165C133.288 45.4517 133.8 45.3693 134.391 45.3693C135.278 45.3693 135.977 45.5554 136.488 45.9276C136.999 46.2969 137.282 46.8054 137.336 47.4531Z" fill="#4EA8DE"/>
<path d="M49 17.1818V22.8636H34.625V17.1818H49ZM37.4091 11.9545H45.25V31.983C45.25 32.286 45.3021 32.5417 45.4062 32.75C45.5104 32.9489 45.6714 33.1004 45.8892 33.2045C46.107 33.2992 46.3864 33.3466 46.7273 33.3466C46.964 33.3466 47.2386 33.3182 47.5511 33.2614C47.8731 33.2045 48.1098 33.1572 48.2614 33.1193L49.3977 38.6307C49.0473 38.7348 48.5455 38.8627 47.892 39.0142C47.2481 39.1657 46.4811 39.2652 45.5909 39.3125C43.7917 39.4072 42.2813 39.2225 41.0597 38.7585C39.8381 38.285 38.9195 37.5417 38.304 36.5284C37.6884 35.5152 37.3902 34.2462 37.4091 32.7216V11.9545ZM62.4766 39.3977C60.1091 39.3977 58.0826 38.929 56.397 37.9915C54.7114 37.0445 53.4188 35.7282 52.5192 34.0426C51.6196 32.3475 51.1697 30.3826 51.1697 28.1477C51.1697 25.9129 51.6196 23.9527 52.5192 22.267C53.4188 20.572 54.7114 19.2557 56.397 18.3182C58.0826 17.3712 60.1091 16.8977 62.4766 16.8977C64.844 16.8977 66.8705 17.3712 68.5561 18.3182C70.2417 19.2557 71.5343 20.572 72.4339 22.267C73.3336 23.9527 73.7834 25.9129 73.7834 28.1477C73.7834 30.3826 73.3336 32.3475 72.4339 34.0426C71.5343 35.7282 70.2417 37.0445 68.5561 37.9915C66.8705 38.929 64.844 39.3977 62.4766 39.3977ZM62.5334 33.6023C63.1963 33.6023 63.7692 33.3797 64.2521 32.9347C64.7351 32.4896 65.1091 31.8551 65.3743 31.0312C65.6394 30.2074 65.772 29.2273 65.772 28.0909C65.772 26.9451 65.6394 25.965 65.3743 25.1506C65.1091 24.3267 64.7351 23.6922 64.2521 23.2472C63.7692 22.8021 63.1963 22.5795 62.5334 22.5795C61.8326 22.5795 61.2313 22.8021 60.7294 23.2472C60.2275 23.6922 59.844 24.3267 59.5788 25.1506C59.3137 25.965 59.1811 26.9451 59.1811 28.0909C59.1811 29.2273 59.3137 30.2074 59.5788 31.0312C59.844 31.8551 60.2275 32.4896 60.7294 32.9347C61.2313 33.3797 61.8326 33.6023 62.5334 33.6023Z" fill="#4EA8DE"/>
<path d="M84.8629 39.2841C83.3099 39.2841 81.88 38.8769 80.5732 38.0625C79.2758 37.2481 78.2341 36.0123 77.4482 34.3551C76.6716 32.6979 76.2834 30.6098 76.2834 28.0909C76.2834 25.4583 76.6906 23.3182 77.505 21.6705C78.3288 20.0227 79.3894 18.8153 80.6868 18.0483C81.9936 17.2812 83.3667 16.8977 84.8061 16.8977C85.8857 16.8977 86.8326 17.0871 87.647 17.4659C88.4614 17.8352 89.1432 18.3324 89.6925 18.9574C90.2417 19.5729 90.6584 20.25 90.9425 20.9886H91.0561V9.90909H98.897V39H91.1129V35.4205H90.9425C90.6394 36.1591 90.2038 36.822 89.6357 37.4091C89.0769 37.9867 88.3951 38.446 87.5902 38.7869C86.7947 39.1184 85.8857 39.2841 84.8629 39.2841ZM87.7607 33.2614C88.4804 33.2614 89.0959 33.053 89.6072 32.6364C90.1281 32.2102 90.5258 31.6136 90.8004 30.8466C91.0845 30.0701 91.2266 29.1515 91.2266 28.0909C91.2266 27.0114 91.0845 26.0881 90.8004 25.321C90.5258 24.5445 90.1281 23.9527 89.6072 23.5455C89.0959 23.1288 88.4804 22.9205 87.7607 22.9205C87.041 22.9205 86.4254 23.1288 85.9141 23.5455C85.4122 23.9527 85.0239 24.5445 84.7493 25.321C84.4841 26.0881 84.3516 27.0114 84.3516 28.0909C84.3516 29.1705 84.4841 30.0985 84.7493 30.875C85.0239 31.642 85.4122 32.2339 85.9141 32.6506C86.4254 33.0578 87.041 33.2614 87.7607 33.2614ZM113.258 39.3977C110.89 39.3977 108.864 38.929 107.178 37.9915C105.493 37.0445 104.2 35.7282 103.3 34.0426C102.401 32.3475 101.951 30.3826 101.951 28.1477C101.951 25.9129 102.401 23.9527 103.3 22.267C104.2 20.572 105.493 19.2557 107.178 18.3182C108.864 17.3712 110.89 16.8977 113.258 16.8977C115.625 16.8977 117.652 17.3712 119.337 18.3182C121.023 19.2557 122.316 20.572 123.215 22.267C124.115 23.9527 124.565 25.9129 124.565 28.1477C124.565 30.3826 124.115 32.3475 123.215 34.0426C122.316 35.7282 121.023 37.0445 119.337 37.9915C117.652 38.929 115.625 39.3977 113.258 39.3977ZM113.315 33.6023C113.978 33.6023 114.55 33.3797 115.033 32.9347C115.516 32.4896 115.89 31.8551 116.156 31.0312C116.421 30.2074 116.553 29.2273 116.553 28.0909C116.553 26.9451 116.421 25.965 116.156 25.1506C115.89 24.3267 115.516 23.6922 115.033 23.2472C114.55 22.8021 113.978 22.5795 113.315 22.5795C112.614 22.5795 112.013 22.8021 111.511 23.2472C111.009 23.6922 110.625 24.3267 110.36 25.1506C110.095 25.965 109.962 26.9451 109.962 28.0909C109.962 29.2273 110.095 30.2074 110.36 31.0312C110.625 31.8551 111.009 32.4896 111.511 32.9347C112.013 33.3797 112.614 33.6023 113.315 33.6023Z" fill="#5E60CE"/>
<g clip-path="url(#clip0_10092_122)">
<path d="M11.0215 13.933C14.1472 17.9011 15.8158 22.7944 15.7553 27.8155V29.0141L16.7865 29.6416C18.119 30.4482 19.1127 31.6993 19.5866 33.1669C19.1705 32.8605 18.7352 32.5803 18.2833 32.3278L15.5333 30.7838L15.0391 33.9001C14.9963 34.1755 14.9389 34.4485 14.8672 34.718H7.16151C7.04692 34.3655 6.95382 34.0129 6.86789 33.6463L6.24484 30.8261L3.70968 32.2362C3.28615 32.473 2.87723 32.7344 2.48507 33.0188C2.96824 31.5682 3.94123 30.3242 5.24224 29.4935L6.22336 28.866V27.7521C6.24106 22.7513 7.92967 17.8952 11.0287 13.933H11.0215ZM11.0287 11C10.868 11.0004 10.7128 11.058 10.5918 11.1622L10.5274 11.2186C6.39778 15.7656 4.10466 21.6454 4.08208 27.745C2.32967 28.8643 1.03251 30.5543 0.417263 32.5197C-0.197979 34.485 -0.0921719 36.6007 0.716194 38.4971C1.56776 36.6455 2.99131 35.1058 4.7839 34.0975C4.96368 34.8642 5.2031 35.6161 5.50005 36.3467C5.53771 36.4871 5.62118 36.6114 5.73763 36.7006C5.85408 36.7898 5.99706 36.8388 6.14458 36.8402H16.0847C16.2852 36.8402 16.4857 36.6498 16.586 36.3537C16.8758 35.6592 17.0778 34.9322 17.1875 34.1892C18.9836 35.1932 20.4083 36.7342 21.2553 38.5887C22.1124 36.7017 22.2451 34.5727 21.6287 32.5967C21.0124 30.6206 19.6888 28.9319 17.9037 27.8437C17.9745 21.7082 15.6935 15.7718 11.5157 11.2186C11.4535 11.1501 11.3773 11.0952 11.2922 11.0576C11.2071 11.0199 11.1149 11.0003 11.0215 11H11.0287Z" fill="#4EA8DE"/>
<path d="M11.0216 27.1599C10.4715 27.1599 9.93376 26.9995 9.47611 26.6991C9.01846 26.3986 8.6614 25.9715 8.44993 25.4716C8.23847 24.9717 8.18206 24.4213 8.28782 23.8899C8.39358 23.3584 8.65678 22.8697 9.04423 22.4853C9.43169 22.1009 9.92606 21.8381 10.465 21.7299C11.004 21.6217 11.5634 21.673 12.0728 21.8773C12.5822 22.0817 13.0188 22.4299 13.3275 22.8781C13.6361 23.3264 13.8031 23.8545 13.8074 24.3961C13.8159 24.747 13.7542 25.0962 13.6256 25.4236C13.4971 25.751 13.3043 26.0503 13.0582 26.3044C12.8121 26.5584 12.5176 26.7622 12.1915 26.9042C11.8654 27.0461 11.5141 27.1234 11.1576 27.1317C11.1126 27.1388 11.0666 27.1388 11.0216 27.1317V27.1599Z" fill="#4EA8DE"/>
<path d="M14.8959 38.5956C14.7167 38.59 14.5382 38.6197 14.3708 38.6829C14.2034 38.7461 14.0505 38.8415 13.9211 38.9637C13.7917 39.0858 13.6884 39.2322 13.6172 39.3942C13.546 39.5562 13.5084 39.7306 13.5066 39.907V44.0669C13.5066 44.4296 13.653 44.7775 13.9135 45.034C14.1741 45.2906 14.5274 45.4347 14.8959 45.4347C15.2644 45.4347 15.6178 45.2906 15.8783 45.034C16.1389 44.7775 16.2852 44.4296 16.2852 44.0669V39.9635C16.291 39.7876 16.2611 39.6124 16.1973 39.4481C16.1336 39.2838 16.0372 39.1335 15.9139 39.0062C15.7906 38.8789 15.6428 38.7771 15.4791 38.7066C15.3154 38.6361 15.139 38.5984 14.9604 38.5956H14.8959Z" fill="#5E60CE"/>
<path d="M7.16154 38.5959C6.97931 38.5864 6.797 38.6131 6.62546 38.6744C6.45392 38.7357 6.29665 38.8303 6.16302 38.9526C6.02939 39.075 5.92213 39.2226 5.84761 39.3866C5.77309 39.5506 5.73284 39.7276 5.72925 39.9073V44.0671C5.72925 44.4298 5.87562 44.7777 6.13617 45.0343C6.39672 45.2908 6.7501 45.4349 7.11857 45.4349C7.48704 45.4349 7.84042 45.2908 8.10097 45.0343C8.36152 44.7777 8.50789 44.4298 8.50789 44.0671V39.9637C8.51362 39.7878 8.48373 39.6126 8.41998 39.4483C8.35623 39.284 8.25989 39.1338 8.13658 39.0065C8.01326 38.8791 7.86544 38.7773 7.70173 38.7068C7.53802 38.6363 7.36169 38.5986 7.18302 38.5959H7.16154Z" fill="#5E60CE"/>
<path d="M10.9213 38.5958C10.7426 38.592 10.5649 38.623 10.3984 38.6869C10.2318 38.7507 10.0797 38.8463 9.95068 38.9681C9.82167 39.0899 9.71828 39.2355 9.64644 39.3966C9.5746 39.5577 9.5357 39.7312 9.53198 39.9072V45.6392C9.53198 46.002 9.67836 46.3499 9.93891 46.6064C10.1995 46.8629 10.5528 47.007 10.9213 47.007C11.2898 47.007 11.6432 46.8629 11.9037 46.6064C12.1643 46.3499 12.3106 46.002 12.3106 45.6392V39.9988C12.3164 39.823 12.2865 39.6478 12.2227 39.4835C12.159 39.3191 12.0626 39.1689 11.9393 39.0416C11.816 38.9143 11.6682 38.8124 11.5045 38.7419C11.3408 38.6714 11.1644 38.6337 10.9858 38.631L10.9213 38.5958Z" fill="#5E60CE"/>
</g>
<defs>
<clipPath id="clip0_10092_122">
<rect width="22" height="36" fill="white" transform="translate(0 11)"/>
</clipPath>
</defs>
</svg>
